<svg version="1.1" id="Layer_1" xmlns="http://www.w3.org/2000/svg" xmlns:xlink="http://www.w3.org/1999/xlink" x="0px" y="0px"
	 width="100%" viewBox="0 0 496 496" enable-background="new 0 0 496 496" xml:space="preserve">
<path fill="#000000" opacity="1.000000" stroke="none" 
	d="
M218.381989,205.002838 
	C215.085190,204.149323 215.155228,202.158600 215.955276,199.847626 
	C220.747406,186.005371 225.528702,172.159363 230.315918,158.315414 
	C231.175735,155.828979 232.647797,154.192245 235.534058,155.018951 
	C246.561661,158.177551 257.578461,161.374207 268.585754,164.602814 
	C269.318359,164.817673 269.938232,165.416809 270.570587,165.812241 
	C270.387421,168.410324 268.470367,168.897964 266.811493,169.458649 
	C260.383423,171.631195 256.336731,175.907959 253.989746,182.320862 
	C252.051392,187.617172 249.185059,192.566559 246.953110,197.765488 
	C245.687317,200.713913 243.787918,202.058411 240.556793,202.366913 
	C233.279388,203.061752 226.036209,204.115311 218.381989,205.002838 
z"/>
<path fill="#000000" opacity="1.000000" stroke="none" 
	d="
M231.619110,251.221985 
	C230.608597,255.081360 228.581467,255.398499 225.973389,253.428925 
	C214.011948,244.395905 202.084335,235.318085 190.149948,226.249252 
	C188.544312,225.029160 187.508881,223.557922 188.855545,221.571564 
	C195.580688,211.651718 202.332138,201.749603 209.123337,191.874954 
	C209.430099,191.428925 210.211914,191.309601 210.966995,190.943863 
	C213.054794,193.809509 212.770401,197.087219 213.264236,200.091202 
	C213.884857,203.866577 215.323608,206.964737 218.261658,209.539841 
	C223.394745,214.038834 228.266510,218.835007 233.368179,223.371262 
	C235.715652,225.458557 236.601059,227.553360 235.806198,230.810684 
	C234.191711,237.426910 233.072296,244.163925 231.619110,251.221985 
z"/>
<path fill="#000000" opacity="1.000000" stroke="none" 
	d="
M225.558304,269.418884 
	C222.247711,264.928925 218.176285,261.419891 215.699066,256.452454 
	C218.313980,254.658585 220.602524,255.665710 222.714081,256.167542 
	C227.936295,257.408630 232.623383,257.205200 237.341278,253.936417 
	C242.648178,250.259552 248.593521,247.518021 254.086182,244.089340 
	C256.709198,242.451965 258.863586,242.504929 261.463409,243.971298 
	C267.250427,247.235397 273.186615,250.233963 278.999298,253.453918 
	C283.495209,255.944473 283.657776,257.690582 279.614319,260.620850 
	C268.179932,268.907257 256.643768,277.053589 245.236435,285.376709 
	C242.223724,287.574890 239.984497,287.488098 237.650818,284.458405 
	C233.798584,279.457214 229.749191,274.607941 225.558304,269.418884 
z"/>
<path fill="#000000" opacity="1.000000" stroke="none" 
	d="
M309.490601,230.615158 
	C311.959473,238.264618 314.254730,245.552338 316.684052,252.795120 
	C317.560059,255.406937 317.308380,257.397461 314.517914,258.464203 
	C303.657990,262.615753 292.791443,266.750031 281.911499,270.848694 
	C281.356415,271.057770 280.653931,270.875610 279.857239,270.875610 
	C278.707611,267.469391 281.090179,265.303711 282.416107,263.108063 
	C285.017090,258.801025 285.345581,254.617798 284.020905,249.810562 
	C282.258667,243.415527 281.186920,236.833206 279.663330,230.367905 
	C279.110565,228.022339 279.451324,226.300980 281.294922,224.597214 
	C286.423035,219.858124 291.342224,214.893646 296.442657,210.123734 
	C300.328918,206.489319 301.853577,206.933945 303.611206,212.193237 
	C305.612030,218.180222 307.457184,224.219254 309.490601,230.615158 
z"/>
<path fill="#000000" opacity="1.000000" stroke="none" 
	d="
M267.618317,194.267288 
	C265.239502,189.273376 262.970184,184.645065 260.863831,179.943710 
	C259.022797,175.834534 259.851288,173.987823 264.148132,174.007294 
	C278.960144,174.074371 293.770782,174.475754 308.581421,174.777054 
	C310.436951,174.814789 312.014771,175.696945 312.134369,177.620041 
	C312.904510,190.004150 313.542389,202.396500 314.195374,214.271057 
	C312.324493,215.475342 311.246368,215.224472 310.698730,214.344894 
	C304.917725,205.059723 295.582550,203.961716 285.955444,203.411621 
	C283.469543,203.269562 280.958893,202.411667 278.530457,202.639069 
	C272.346436,203.218109 269.416412,199.890701 267.618317,194.267288 
z"/>
<path fill="#000000" opacity="1.000000" stroke="none" 
	d="
M224.693756,344.809143 
	C220.299652,345.942871 217.006927,344.693512 215.080612,341.017334 
	C212.949875,336.951111 212.773483,332.543854 215.397186,328.667542 
	C217.819473,325.088837 221.461807,324.268921 225.548965,325.896973 
	C226.007736,326.079712 226.610062,326.430298 226.961014,326.277802 
	C234.564148,322.974060 233.244492,329.085480 233.811295,332.887451 
	C234.479034,337.366638 233.688110,341.856354 233.208694,346.308105 
	C232.770981,350.372650 229.928726,352.367432 226.138931,352.889648 
	C222.072083,353.450104 218.091599,353.114929 215.136276,349.743896 
	C214.198608,348.674286 214.100113,347.227295 215.140472,346.086273 
	C216.455292,344.644196 217.849823,345.298920 219.136948,346.232697 
	C222.414246,348.610291 225.322433,349.159668 227.501526,344.876770 
	C226.514877,343.918945 225.765121,344.465454 224.693756,344.809143 
M227.615417,336.142914 
	C227.701614,333.285553 227.220184,330.697052 223.781616,330.243652 
	C221.263901,329.911652 220.255432,331.706177 219.833359,333.801483 
	C219.304092,336.428864 219.745865,339.009277 222.386765,340.131287 
	C225.236053,341.341827 226.517365,339.117554 227.615417,336.142914 
z"/>
<path fill="#000000" opacity="1.000000" stroke="none" 
	d="
M278.674988,324.817627 
	C277.057098,328.457062 275.179260,328.404358 273.114563,325.625427 
	C272.314484,324.548553 271.567871,323.418976 270.222626,322.979004 
	C268.257660,322.336365 266.347992,322.636078 265.632263,324.675262 
	C264.949646,326.620148 266.834076,327.126251 268.230865,327.602600 
	C270.587799,328.406403 273.104340,328.849457 275.327240,329.916199 
	C279.588531,331.961121 281.166626,336.007446 279.377289,339.842194 
	C277.459320,343.952545 273.955658,345.332672 269.601471,345.436707 
	C265.132660,345.543488 261.289337,344.578674 259.008057,340.372131 
	C258.111816,338.719452 257.530731,336.791321 259.518982,335.465607 
	C261.606476,334.073730 262.992737,335.486176 263.996948,337.130219 
	C265.296570,339.257874 266.823547,340.882294 269.549957,340.566742 
	C271.317108,340.362244 272.869995,339.582458 273.215912,337.710083 
	C273.566345,335.813477 271.945831,335.130737 270.558685,334.617493 
	C268.224030,333.753632 265.751587,333.239319 263.463867,332.276733 
	C260.492859,331.026611 258.564636,328.858734 258.745514,325.360870 
	C258.922668,321.934753 260.918610,319.925873 263.938843,318.722687 
	C270.339050,316.173035 276.115814,318.419952 278.674988,324.817627 
z"/>
<path fill="#000000" opacity="1.000000" stroke="none" 
	d="
M295.028931,342.051270 
	C294.186279,337.004333 296.903259,334.663849 301.406372,333.747437 
	C303.316895,333.358643 305.347382,333.359283 307.478638,331.217468 
	C304.825500,329.554626 302.840515,329.924438 300.855194,331.760376 
	C299.505432,333.008575 297.991608,333.813171 296.608612,332.024384 
	C295.154541,330.143646 296.277771,328.421722 297.752838,327.287903 
	C301.347412,324.524872 305.400879,324.421143 309.562988,325.863495 
	C313.248596,327.140686 313.602173,330.381683 313.907898,333.547119 
	C314.114532,335.686554 313.975983,337.857422 314.131622,340.004120 
	C314.406219,343.792053 314.178040,346.804047 309.116241,344.189911 
	C307.743317,343.480865 306.597565,344.553101 305.358215,344.917847 
	C301.599976,346.023895 298.123291,345.888702 295.252075,342.222351 
	C295.003296,342.012054 295.028931,342.051270 295.028931,342.051270 
M306.145142,340.072479 
	C306.906219,339.278870 308.035309,338.598633 306.697784,336.783936 
	C305.080139,337.708038 302.377838,336.452545 301.516541,339.458252 
	C302.703491,341.323578 304.155579,340.794495 306.145142,340.072479 
z"/>
<path fill="#000000" opacity="1.000000" stroke="none" 
	d="
M252.487503,327.394012 
	C256.374115,331.461243 257.034698,335.772736 254.693741,340.424561 
	C252.753036,344.281006 249.364456,345.568146 245.200409,345.398956 
	C238.861771,345.141418 235.055115,340.672089 235.683899,334.092407 
	C236.273575,327.921692 241.530106,323.991608 247.622940,325.318665 
	C249.203171,325.662811 250.670898,326.523590 252.487503,327.394012 
M248.843384,331.748169 
	C247.117355,329.873596 244.975311,329.326508 243.197693,331.203033 
	C241.191513,333.320801 241.275360,336.081665 242.572922,338.652191 
	C243.416077,340.322510 244.958359,341.076843 246.754395,340.494049 
	C249.483322,339.608459 249.810989,337.254456 249.725021,334.820984 
	C249.696289,334.007721 249.418869,333.203247 248.843384,331.748169 
z"/>
<path fill="#000000" opacity="1.000000" stroke="none" 
	d="
M331.994873,329.008392 
	C336.277924,324.724182 341.093536,323.745361 345.428925,326.385376 
	C347.186615,327.455750 348.992432,328.919250 347.647858,331.176941 
	C346.357086,333.344360 344.563812,332.331940 343.004730,331.089386 
	C341.577911,329.952301 340.131409,328.624786 338.228027,330.579895 
	C339.224609,333.179871 341.836853,332.491058 343.660797,333.276825 
	C346.671509,334.573761 349.773773,335.852661 349.060974,339.921631 
	C348.376556,343.828461 345.491852,345.238922 341.781433,345.370667 
	C338.572632,345.484619 335.382324,345.511841 333.040924,342.810272 
	C331.892975,341.485779 331.123688,339.877777 332.569489,338.354370 
	C333.950989,336.898773 335.273926,337.749481 336.406250,338.934784 
	C338.323975,340.942261 340.407104,341.503387 343.305878,339.845490 
	C339.864685,335.594116 331.047852,337.979065 331.968109,329.370850 
	C332.011383,328.980957 331.994873,329.008392 331.994873,329.008392 
z"/>
<path fill="#000000" opacity="1.000000" stroke="none" 
	d="
M195.881866,345.031281 
	C193.635620,344.922241 192.789825,343.737793 192.762955,342.095886 
	C192.687027,337.456482 192.705414,332.814545 192.767014,328.174622 
	C192.783096,326.962372 193.637863,325.242950 194.575760,325.623016 
	C198.261261,327.116516 201.650940,324.525543 205.166901,325.248871 
	C207.988693,325.829346 210.010864,327.490356 210.626328,330.390594 
	C211.460190,334.320068 211.156403,338.312866 210.831711,342.270020 
	C210.702927,343.839569 209.789337,345.125671 207.958511,345.128235 
	C206.129456,345.130798 205.232056,343.850067 205.073013,342.280243 
	C204.823303,339.815308 204.896103,337.319214 204.777328,334.838989 
	C204.683914,332.888733 204.993561,330.448151 202.128220,330.366882 
	C199.338028,330.287750 198.627899,332.537323 198.443115,334.789978 
	C198.240295,337.262634 198.341064,339.758667 198.218353,342.240051 
	C198.157028,343.479980 197.453491,344.398712 195.881866,345.031281 
z"/>
<path fill="#000000" opacity="1.000000" stroke="none" 
	d="
M164.890472,318.206299 
	C166.983475,319.259338 167.318436,320.820740 167.309082,322.563873 
	C167.297516,324.717804 167.320297,326.871918 167.320496,329.025940 
	C167.321426,338.724823 167.319504,338.733185 176.666580,339.776764 
	C178.560486,339.988251 180.601639,340.285919 180.495544,342.680145 
	C180.407425,344.668915 178.609238,345.177246 176.833023,345.277802 
	C176.502258,345.296570 176.170624,345.312622 175.839523,345.310547 
	C159.561066,345.208771 160.883163,347.279724 160.854538,331.011108 
	C160.849594,328.194763 160.809128,325.373718 160.953400,322.563477 
	C161.068588,320.319611 161.574234,318.195679 164.890472,318.206299 
z"/>
<path fill="#000000" opacity="1.000000" stroke="none" 
	d="
M294.989319,341.993317 
	C294.271698,346.090637 291.082733,345.430023 288.331055,345.286804 
	C285.311401,345.129639 284.058350,343.107605 283.764954,340.299347 
	C283.347290,336.301544 284.048004,332.370728 281.703125,328.326538 
	C280.700775,326.597839 283.883575,322.413239 285.252563,319.384338 
	C285.388824,319.082764 286.135773,318.940063 286.604523,318.928131 
	C287.933167,318.894287 289.448151,319.945068 289.107971,320.798096 
	C287.531067,324.752075 295.310394,325.726349 291.945282,329.795105 
	C287.895996,334.691040 288.776581,339.557220 294.720825,341.847534 
	C295.028931,342.051270 295.003296,342.012054 294.989319,341.993317 
z"/>
<path fill="#000000" opacity="1.000000" stroke="none" 
	d="
M332.019623,328.966125 
	C331.058838,329.555908 330.000031,330.788391 329.135193,330.664673 
	C322.922852,329.776001 323.671570,334.177612 323.262909,337.907135 
	C322.968384,340.594727 324.657684,345.082764 320.324127,345.037506 
	C315.937164,344.991669 317.281982,340.435547 317.009064,337.518646 
	C316.855591,335.878906 316.882355,334.203613 317.017273,332.559875 
	C317.226685,330.008453 316.827484,325.534729 319.483002,325.884705 
	C323.488861,326.412567 328.867310,322.205719 331.842285,328.694397 
	C331.994873,329.008392 332.011383,328.980957 332.019623,328.966125 
z"/>
<path fill="#000000" opacity="1.000000" stroke="none" 
	d="
M182.766510,337.848358 
	C182.788300,334.576050 182.760880,331.771393 182.845520,328.970093 
	C182.898560,327.214600 183.458740,325.480438 185.471344,325.354218 
	C187.712219,325.213715 188.723709,326.956635 188.817017,328.890747 
	C189.007431,332.837799 189.026001,336.800598 188.917694,340.751495 
	C188.862976,342.747620 188.452042,345.018799 185.833954,345.039764 
	C183.172989,345.061127 182.931244,342.835022 182.796234,340.790222 
	C182.742020,339.968842 182.772675,339.141846 182.766510,337.848358 
z"/>
<path fill="#000000" opacity="1.000000" stroke="none" 
	d="
M185.846436,318.418457 
	C188.607727,319.326935 189.381592,320.863892 187.618820,322.951477 
	C186.473984,324.307220 184.868301,324.375641 183.776459,322.886536 
	C182.161835,320.684418 183.097992,319.204376 185.846436,318.418457 
z"/>
</svg>